<?xml version="1.0" standalone="no"?>
<!DOCTYPE svg PUBLIC "-//W3C//DTD SVG 20010904//EN"
 "http://www.w3.org/TR/2001/REC-SVG-20010904/DTD/svg10.dtd">
<svg version="1.0" xmlns="http://www.w3.org/2000/svg"
 width="700.000000pt" height="700.000000pt" viewBox="0 0 700.000000 700.000000"
 preserveAspectRatio="xMidYMid meet">
<metadata>
Created by potrace 1.11, written by Peter Selinger 2001-2013
</metadata>
<g transform="translate(0.000000,700.000000) scale(0.100000,-0.100000)"
fill="#000000" stroke="none">
<path d="M3125 6600 c-19 -38 -38 -70 -41 -70 -3 0 -25 14 -49 30 -24 17 -55
30 -69 30 -21 0 -26 -6 -32 -35 -7 -41 -29 -46 -64 -15 -44 38 -84 18 -95 -48
-4 -20 -7 -41 -9 -45 -1 -5 -22 8 -46 27 -53 42 -57 43 -81 15 l-18 -21 -32
26 c-29 25 -32 25 -58 10 -15 -9 -45 -43 -67 -75 -21 -32 -42 -59 -47 -59 -4
0 -12 11 -17 24 -27 72 -64 42 -222 -181 -29 -41 -35 -41 -43 0 -10 51 -26 87
-39 87 -7 0 -22 -10 -33 -22 -19 -21 -133 -203 -133 -213 0 -2 -13 -26 -30
-52 -24 -38 -30 -43 -31 -25 -1 12 -2 25 -3 30 -1 4 -6 44 -10 90 -5 45 -11
82 -15 82 -3 0 -17 -21 -31 -47 -69 -132 -191 -345 -230 -403 -43 -64 -77
-100 -234 -250 -92 -89 -132 -140 -179 -235 -67 -134 -72 -163 -72 -430 1
-235 1 -242 28 -318 34 -97 136 -297 183 -357 51 -65 45 -87 -34 -119 -35 -14
-76 -38 -91 -53 -59 -57 -102 -201 -95 -315 14 -214 158 -403 353 -463 47 -15
60 -15 99 -3 25 7 54 11 64 7 10 -3 46 -38 79 -77 127 -149 225 -242 351 -335
35 -26 78 -57 94 -69 32 -25 158 -101 307 -188 l98 -56 -17 -27 c-18 -28 -85
-111 -117 -147 -47 -50 -189 -248 -230 -320 -116 -203 -212 -447 -237 -608
-41 -252 65 -415 274 -422 190 -6 300 76 313 235 6 71 5 73 -52 173 -35 62
-41 137 -16 209 32 94 64 160 71 148 4 -6 7 -41 8 -77 1 -58 5 -106 16 -193 2
-14 11 -61 20 -105 8 -44 18 -92 21 -107 11 -61 18 -88 50 -219 35 -143 81
-305 113 -399 10 -30 19 -73 21 -95 3 -51 -16 -70 -93 -90 -74 -20 -330 -120
-382 -150 -114 -67 -174 -184 -96 -186 15 0 36 -3 47 -5 20 -4 836 -5 945 -1
l55 2 3 115 c3 101 -1 127 -25 215 -47 171 -30 292 69 489 32 64 105 166 118
166 5 0 15 -12 23 -27 8 -16 33 -62 56 -104 41 -75 82 -180 105 -270 20 -76
19 -150 -3 -209 -38 -107 -63 -286 -47 -338 14 -44 37 -46 511 -48 427 -2 546
3 568 25 39 39 -77 188 -163 211 -25 6 -97 31 -160 55 -63 25 -141 52 -173 61
-32 8 -67 25 -78 37 -27 29 -23 60 36 263 26 88 49 166 51 174 11 43 94 387
98 409 2 14 14 79 26 144 11 65 22 155 23 201 1 46 5 79 10 73 15 -24 67 -204
70 -247 6 -69 -10 -119 -69 -215 -13 -22 -24 -52 -24 -68 0 -37 54 -155 87
-189 41 -43 113 -63 223 -63 86 0 100 3 142 27 25 16 62 46 81 69 41 48 88
166 89 224 0 22 6 51 14 65 34 62 44 100 45 166 0 107 -74 257 -153 309 -59
39 -87 71 -201 234 -55 80 -144 197 -197 260 -109 132 -130 161 -130 177 0 7
46 36 103 65 260 132 501 318 674 521 100 116 106 120 217 122 75 1 101 6 146
27 200 94 333 407 265 622 -25 75 -95 154 -172 193 -32 16 -60 30 -62 31 -2 1
13 24 33 51 20 27 36 53 36 57 0 4 8 19 19 33 34 49 139 266 163 337 21 64 23
87 23 270 0 232 -8 280 -71 421 -36 79 -100 158 -251 309 -82 82 -159 169
-185 210 -39 60 -174 296 -215 376 -7 14 -22 34 -33 44 -20 18 -20 18 -19 -26
0 -24 4 -65 8 -90 21 -126 -29 -85 -145 121 -78 140 -111 163 -132 91 -7 -21
-12 -48 -12 -60 0 -45 -22 -23 -133 133 -26 36 -59 72 -73 78 -25 11 -29 10
-59 -26 l-32 -39 -6 25 c-9 34 -94 148 -110 148 -7 0 -26 -14 -42 -30 -28 -29
-30 -30 -37 -10 -11 31 -56 26 -94 -11 l-31 -30 -22 44 c-35 72 -43 75 -96 32
-41 -34 -45 -35 -45 -16 0 11 1 22 2 24 1 1 -4 12 -11 25 -22 41 -65 28 -151
-47 l-24 -22 -14 68 c-14 74 -34 113 -56 113 -15 0 -63 -36 -109 -83 -38 -38
-87 -67 -115 -67 -36 0 -72 24 -137 89 -80 82 -95 81 -140 -9z m-200 -882
c110 -14 243 -53 354 -102 55 -25 106 -46 112 -46 6 0 72 28 147 61 180 81
223 88 497 85 206 -3 224 -4 275 -26 54 -23 317 -180 342 -203 7 -7 47 -38 89
-69 91 -69 224 -205 301 -308 152 -204 255 -462 293 -735 14 -98 14 -384 1
-450 -14 -66 -17 -81 -22 -110 -18 -101 -72 -254 -136 -383 -130 -264 -376
-529 -648 -699 -144 -89 -331 -171 -510 -222 -92 -26 -130 -35 -240 -56 -14
-3 -47 -8 -75 -11 -469 -54 -880 8 -1262 192 -215 103 -367 210 -527 370 -251
252 -432 599 -472 910 -15 110 -7 463 11 517 2 7 6 29 9 49 47 320 259 663
581 941 48 41 203 152 235 169 14 7 41 22 60 33 62 37 159 76 223 90 70 16
256 17 362 3z m2610 -1803 c100 -132 104 -299 10 -459 -68 -116 -244 -226
-289 -180 -18 18 -14 46 24 149 47 129 86 254 105 340 26 120 46 189 57 202
14 17 61 -10 93 -52z m-4185 35 c6 -11 24 -80 40 -153 36 -161 36 -162 94
-315 58 -149 66 -190 42 -207 -38 -28 -162 30 -233 109 -76 85 -122 199 -125
312 -3 115 34 196 110 245 55 34 58 35 72 9z m1388 -1523 c23 -13 132 -94 242
-182 110 -88 221 -172 248 -186 44 -24 47 -29 46 -65 0 -21 -4 -61 -8 -89 -21
-151 -25 -209 -26 -376 0 -136 3 -156 31 -179 79 -65 -249 -77 -398 -15 -43
18 -80 19 -112 1 -33 -18 -57 -10 -80 28 -32 54 -35 81 -46 486 -6 217 -9 250
-24 279 -13 23 -40 28 -45 9 -2 -7 -9 -35 -15 -63 -7 -27 -35 -94 -63 -150
-27 -55 -77 -163 -109 -239 -32 -77 -64 -143 -71 -148 -33 -20 -205 1 -215 28
-18 48 170 400 328 609 83 110 239 275 259 275 8 -1 34 -11 58 -23z m1451 -43
c139 -129 345 -400 387 -509 16 -44 16 -48 -5 -118 -11 -39 -21 -81 -21 -91 0
-24 -28 -56 -49 -56 -45 1 -202 313 -276 548 -7 20 -24 14 -30 -10 -11 -51
-15 -113 -20 -328 -5 -226 -10 -320 -20 -374 -19 -100 -110 -156 -153 -95 -12
18 -16 18 -72 -12 -33 -17 -85 -34 -117 -39 -66 -9 -259 -7 -269 3 -4 3 -2 30
3 58 13 63 8 388 -7 484 -6 39 -13 98 -16 131 -6 59 -5 62 17 69 34 11 93 52
274 195 218 171 267 205 296 209 4 1 39 -29 78 -65z m-1069 -29 c106 -10 111
-11 152 -19 42 -9 42 -9 -14 -122 l-31 -62 -86 71 c-47 40 -101 86 -119 104
-32 31 -32 32 -10 35 13 2 25 3 28 2 3 -2 39 -6 80 -9z m670 -6 c0 -14 -45
-58 -137 -133 l-82 -67 -34 68 c-55 109 -40 124 133 139 41 3 76 7 78 9 7 6
42 -8 42 -16z m-376 -98 c9 -14 -4 -41 -19 -41 -18 0 -28 17 -21 35 6 17 32
20 40 6z m-5 -240 c19 -12 6 -41 -19 -41 -13 0 -20 7 -20 18 0 31 14 39 39 23z
m31 -172 c0 -22 -5 -29 -20 -29 -22 0 -26 20 -9 51 14 26 29 15 29 -22z m1333
-120 c59 -52 91 -124 92 -209 0 -81 -19 -116 -69 -125 -49 -10 -95 16 -133 72
-74 113 -73 248 3 294 35 21 54 15 107 -32z m-1385 -20 c4 -22 -28 -53 -41
-40 -15 15 1 63 21 59 9 -2 18 -11 20 -19z m62 -109 c24 -24 25 -34 6 -49 -30
-25 -79 26 -55 55 15 19 25 18 49 -6z m-1223 -158 c59 -19 61 -29 5 -27 -56 3
-140 24 -148 37 -9 14 93 7 143 -10z m1187 12 c15 -6 22 -44 10 -56 -6 -7 -41
3 -68 18 -42 25 8 57 58 38z m-1149 -107 c79 -19 115 -34 142 -59 25 -23 49
-75 39 -85 -3 -4 -34 3 -69 15 -86 31 -89 30 -85 -20 3 -38 7 -44 33 -52 73
-21 76 -23 63 -51 -6 -14 -13 -23 -15 -21 -2 2 -25 -3 -51 -11 -26 -8 -73 -17
-104 -18 -50 -3 -62 0 -96 25 -79 57 -130 146 -131 227 -1 67 15 76 123 69 50
-3 118 -12 151 -19z m2404 -4 c108 -25 149 -101 101 -181 -44 -72 -114 -122
-171 -122 -75 0 -204 40 -197 61 2 6 26 24 53 39 56 31 71 50 62 74 -8 20 -40
20 -100 0 -26 -9 -54 -13 -63 -10 -13 5 -13 9 0 34 29 56 86 95 171 116 22 5
104 -1 144 -11z m-1532 -926 c17 -18 17 -20 -17 -48 -39 -33 -87 -49 -130 -44
-42 6 -168 94 -153 108 3 4 68 6 144 4 119 -2 141 -5 156 -20z m801 17 c22 -6
21 -7 -10 -35 -56 -50 -112 -72 -167 -66 -62 7 -111 32 -111 57 0 22 11 30 54
41 38 9 203 11 234 3z"/>
<path d="M2489 4576 c-2 -2 -37 -7 -77 -10 -85 -8 -214 -52 -440 -150 -236
-103 -290 -144 -346 -261 -44 -93 -55 -157 -52 -289 6 -235 84 -405 241 -523
88 -67 245 -121 397 -138 49 -5 75 -31 93 -91 13 -47 28 -69 78 -119 37 -36
91 -76 134 -98 130 -68 371 -134 558 -153 33 -3 78 -9 100 -13 47 -9 508 -6
543 2 13 4 51 9 85 12 34 3 105 15 157 26 52 12 106 23 120 25 45 9 154 56
197 86 95 64 164 168 165 247 0 46 18 71 51 72 113 5 184 17 280 49 220 74
337 185 408 387 28 79 34 129 33 258 -1 228 -92 384 -269 462 -28 12 -97 42
-155 68 -162 72 -158 71 -183 47 -27 -25 -67 -36 -86 -23 -12 8 -12 13 2 35
22 33 21 43 -2 49 -14 3 -33 -9 -65 -44 -50 -54 -57 -57 -80 -33 -20 20 -21
18 10 49 45 45 6 65 -130 70 -143 4 -376 -76 -376 -129 0 -18 19 -24 86 -32
92 -11 78 -30 -48 -65 -101 -28 -164 -64 -228 -128 -60 -60 -115 -159 -125
-226 -4 -22 -8 -49 -10 -60 -2 -11 -4 -34 -4 -52 -1 -50 -22 -57 -202 -68
l-97 -6 13 58 c35 155 50 382 27 405 -16 16 -29 -19 -36 -101 -12 -126 -35
-138 -82 -45 -51 102 -132 162 -306 229 -54 20 -96 41 -93 45 3 5 23 11 44 15
22 3 47 12 57 20 18 13 18 14 -1 35 -48 53 -173 95 -295 99 -41 1 -77 4 -81 6
-3 3 -8 3 -10 1z m31 -231 c120 -14 121 -14 239 -45 289 -76 392 -193 395
-450 1 -145 -13 -213 -63 -291 -16 -26 -43 -52 -63 -62 -19 -9 -104 -28 -189
-41 -85 -14 -163 -28 -174 -30 -137 -30 -177 -45 -261 -95 -84 -51 -120 -53
-299 -17 -100 20 -221 77 -285 134 -95 83 -172 292 -172 463 0 170 62 284 197
364 72 43 135 62 235 73 83 9 354 7 440 -3z m2157 1 c110 -8 166 -21 240 -57
160 -78 228 -215 218 -439 -4 -95 -9 -118 -44 -200 -70 -163 -156 -249 -307
-306 -35 -13 -76 -26 -91 -29 -15 -3 -39 -8 -53 -12 -14 -4 -66 -8 -117 -9
-96 -3 -166 11 -248 47 -100 44 -220 80 -333 99 -150 25 -161 28 -199 56 -38
29 -89 129 -103 203 -19 101 -7 290 20 326 4 6 10 22 14 37 10 43 112 139 191
180 108 56 252 91 425 104 47 3 86 7 87 8 4 3 222 -3 300 -8z m-1235 -631
c-11 -70 -85 -96 -141 -50 -59 50 -30 76 79 72 59 -2 65 -4 62 -22z m166 -173
c13 -30 21 -56 18 -59 -5 -5 -260 -4 -326 1 -19 2 -47 4 -62 5 -55 2 -70 48
-30 94 13 15 17 15 31 3 21 -19 91 -35 135 -30 55 5 91 29 126 84 l33 51 26
-48 c15 -26 37 -72 49 -101z m147 -172 c45 -23 39 -51 -15 -77 -69 -32 -196
-50 -365 -51 -147 0 -250 12 -332 39 -70 23 -81 33 -62 55 18 22 45 31 119 39
36 4 66 8 68 10 2 1 128 2 280 1 226 -1 283 -4 307 -16z"/>
<path d="M2415 4146 c-202 -71 -329 -323 -259 -516 20 -55 42 -75 95 -85 55
-10 471 -15 513 -5 70 15 88 51 88 175 0 188 -63 317 -192 392 -72 42 -184 60
-245 39z m68 -62 c3 -4 -4 -25 -17 -48 -42 -75 -68 -223 -75 -423 -1 -19 -5
-22 -28 -18 -35 7 -76 13 -85 14 -5 1 -17 10 -28 21 -16 16 -20 33 -20 93 0
142 71 285 175 348 30 19 66 25 78 13z"/>
<path d="M4207 4149 c-161 -37 -289 -225 -290 -429 -1 -93 29 -159 78 -172 66
-18 377 -26 500 -12 81 8 104 19 119 55 19 46 20 194 1 275 -46 200 -225 324
-408 283z m68 -69 c4 -6 -5 -31 -20 -56 -15 -25 -31 -60 -36 -77 -10 -33 -22
-166 -28 -315 -1 -32 -40 -44 -101 -31 -27 6 -54 17 -61 25 -19 23 -20 133 -3
199 32 121 87 198 175 242 49 25 65 28 74 13z"/>
<path d="M4721 1639 c-16 -45 -14 -94 4 -109 13 -11 22 -8 53 17 41 34 49 60
16 55 -16 -2 -23 5 -30 29 -13 44 -29 47 -43 8z"/>
</g>
</svg>
